<svg width="24" height="24" viewBox="0 0 24 24" fill="none" xmlns="http://www.w3.org/2000/svg">
<path d="M12 11.2901L15.54 14.8301C15.7274 15.0163 15.9808 15.1209 16.245 15.1209C16.5092 15.1209 16.7626 15.0163 16.95 14.8301C17.0437 14.7371 17.1181 14.6265 17.1689 14.5046C17.2197 14.3828 17.2458 14.2521 17.2458 14.1201C17.2458 13.9881 17.2197 13.8573 17.1689 13.7355C17.1181 13.6136 17.0437 13.503 16.95 13.4101L12.71 9.17007C12.617 9.07634 12.5064 9.00194 12.3846 8.95117C12.2627 8.90041 12.132 8.87427 12 8.87427C11.868 8.87427 11.7373 8.90041 11.6154 8.95117C11.4936 9.00194 11.383 9.07634 11.29 9.17007L7.00001 13.4101C6.90732 13.5035 6.834 13.6143 6.78423 13.7362C6.73447 13.858 6.70924 13.9885 6.71 14.1201C6.70924 14.2517 6.73447 14.3821 6.78423 14.504C6.834 14.6258 6.90732 14.7366 7.00001 14.8301C7.18737 15.0163 7.44082 15.1209 7.70501 15.1209C7.96919 15.1209 8.22264 15.0163 8.41001 14.8301L12 11.2901Z" fill="#8DBB11"/>
</svg>
