<svg width="32" height="32" viewBox="0 0 32 32" fill="none" xmlns="http://www.w3.org/2000/svg">
<path d="M6.66669 10.6667H25.3334C25.687 10.6667 26.0261 10.5262 26.2762 10.2761C26.5262 10.0261 26.6667 9.68696 26.6667 9.33333C26.6667 8.97971 26.5262 8.64057 26.2762 8.39052C26.0261 8.14048 25.687 8 25.3334 8H6.66669C6.31307 8 5.97393 8.14048 5.72388 8.39052C5.47383 8.64057 5.33335 8.97971 5.33335 9.33333C5.33335 9.68696 5.47383 10.0261 5.72388 10.2761C5.97393 10.5262 6.31307 10.6667 6.66669 10.6667ZM28 14.6667H4.00002C3.6464 14.6667 3.30726 14.8071 3.05721 15.0572C2.80716 15.3072 2.66669 15.6464 2.66669 16C2.66669 16.3536 2.80716 16.6928 3.05721 16.9428C3.30726 17.1929 3.6464 17.3333 4.00002 17.3333H28C28.3536 17.3333 28.6928 17.1929 28.9428 16.9428C29.1929 16.6928 29.3334 16.3536 29.3334 16C29.3334 15.6464 29.1929 15.3072 28.9428 15.0572C28.6928 14.8071 28.3536 14.6667 28 14.6667ZM25.3334 21.3333H6.66669C6.31307 21.3333 5.97393 21.4738 5.72388 21.7239C5.47383 21.9739 5.33335 22.313 5.33335 22.6667C5.33335 23.0203 5.47383 23.3594 5.72388 23.6095C5.97393 23.8595 6.31307 24 6.66669 24H25.3334C25.687 24 26.0261 23.8595 26.2762 23.6095C26.5262 23.3594 26.6667 23.0203 26.6667 22.6667C26.6667 22.313 26.5262 21.9739 26.2762 21.7239C26.0261 21.4738 25.687 21.3333 25.3334 21.3333Z" fill="#141414"/>
</svg>
