<svg width="56" height="56" viewBox="0 0 56 56" fill="none" xmlns="http://www.w3.org/2000/svg">
<circle opacity="0.2" cx="28" cy="28" r="28" fill="white"/>
<path d="M27.29 28.0001L30.83 31.5401C31.0163 31.7274 31.1208 31.9809 31.1208 32.2451C31.1208 32.5092 31.0163 32.7627 30.83 32.9501C30.737 33.0438 30.6264 33.1182 30.5046 33.1689C30.3827 33.2197 30.252 33.2459 30.12 33.2459C29.988 33.2459 29.8573 33.2197 29.7354 33.1689C29.6136 33.1182 29.503 33.0438 29.41 32.9501L25.17 28.7101C25.0763 28.6171 25.0019 28.5065 24.9511 28.3846C24.9003 28.2628 24.8742 28.1321 24.8742 28.0001C24.8742 27.868 24.9003 27.7373 24.9511 27.6155C25.0019 27.4936 25.0763 27.383 25.17 27.2901L29.41 23.0001C29.5034 22.9074 29.6143 22.834 29.7361 22.7843C29.8579 22.7345 29.9884 22.7093 30.12 22.7101C30.2516 22.7093 30.3821 22.7345 30.5039 22.7843C30.6257 22.834 30.7366 22.9074 30.83 23.0001C31.0163 23.1874 31.1208 23.4409 31.1208 23.7051C31.1208 23.9692 31.0163 24.2227 30.83 24.4101L27.29 28.0001Z" fill="white"/>
</svg>
