<svg width="32" height="32" viewBox="0 0 32 32" fill="none" xmlns="http://www.w3.org/2000/svg">
<path d="M29.7549 12.9297H21.9092C21.7744 12.9297 21.6641 13.0402 21.6641 13.1752V14.6485C21.6641 14.7835 21.7744 14.894 21.9092 14.894H29.7549C29.8897 14.894 30.0001 14.7835 30.0001 14.6485V13.1752C30.0001 13.0402 29.8897 12.9297 29.7549 12.9297ZM25.6482 17.1039H21.9092C21.7744 17.1039 21.6641 17.2144 21.6641 17.3495V18.8228C21.6641 18.9578 21.7744 19.0683 21.9092 19.0683H25.6482C25.783 19.0683 25.8934 18.9578 25.8934 18.8228V17.3495C25.8934 17.2144 25.783 17.1039 25.6482 17.1039ZM15.4212 10.1826H14.0942C13.9042 10.1826 13.751 10.3361 13.751 10.5264V18.1383C13.751 18.2488 13.8031 18.3501 13.892 18.4146L18.4553 21.7478C18.6085 21.8583 18.8231 21.8276 18.9334 21.6742L19.721 20.5968V20.5938C19.8314 20.4403 19.7976 20.2255 19.6444 20.115L15.7614 17.3035V10.5264C15.7645 10.3361 15.6082 10.1826 15.4212 10.1826Z" fill="#8DBB11"/>
<path d="M25.4582 20.9682H23.6868C23.5152 20.9682 23.3528 21.0572 23.2608 21.2045C22.8716 21.8214 22.418 22.3923 21.897 22.9141C20.9991 23.8134 19.954 24.5194 18.7925 25.0105C17.588 25.52 16.3101 25.7778 14.9922 25.7778C13.6713 25.7778 12.3934 25.52 11.192 25.0105C10.0305 24.5194 8.9854 23.8134 8.08744 22.9141C7.18948 22.0148 6.4846 20.9682 5.99424 19.8049C5.4855 18.6017 5.22807 17.3218 5.22807 15.9989C5.22807 14.6761 5.4855 13.3992 5.99424 12.193C6.4846 11.0297 7.18948 9.98305 8.08744 9.08374C8.9854 8.18443 10.0305 7.47848 11.192 6.98739C12.3934 6.47788 13.6744 6.22006 14.9922 6.22006C16.3131 6.22006 17.5911 6.47788 18.7925 6.98739C19.954 7.47848 20.9991 8.18443 21.897 9.08374C22.418 9.60553 22.8716 10.1764 23.2608 10.7934C23.3528 10.9407 23.5152 11.0297 23.6868 11.0297H25.4582C25.6697 11.0297 25.8045 10.8087 25.7095 10.6215C23.7113 6.64056 19.6598 4.05311 15.1363 4.00094C8.51343 3.91806 3.01228 9.3477 3.00002 15.9744C2.98776 22.6133 8.3602 28 14.9892 28C19.5709 28 23.6899 25.4034 25.7095 21.3764C25.8045 21.1892 25.6666 20.9682 25.4582 20.9682Z" fill="#8DBB11"/>
</svg>
