<svg width="32" height="32" viewBox="0 0 32 32" fill="none" xmlns="http://www.w3.org/2000/svg">
<path d="M16 3C14.0559 3 12.4545 4.60136 12.4545 6.54545C12.4545 6.96145 12.542 7.35382 12.6767 7.72727H6.76764L6.58209 8.68809L3.03664 26.4154L3 26.5253V29H29V26.5253L28.9634 26.4154L25.4179 8.68809L25.2324 7.72727H19.3233C19.4652 7.34918 19.5404 6.94929 19.5455 6.54545C19.5455 4.60136 17.9441 3 16 3ZM16 5.36364C16.6654 5.36364 17.1818 5.88127 17.1818 6.54545C17.1818 7.21082 16.6642 7.72727 16 7.72727C15.3346 7.72727 14.8182 7.20964 14.8182 6.54545C14.8182 5.88009 15.3358 5.36364 16 5.36364ZM8.68691 10.0909H23.3131L26.6364 26.6364H5.36364L8.68691 10.0909Z" fill="#8DBB11"/>
</svg>
